<svg width="14" height="21" viewBox="0 0 14 21" fill="none" xmlns="http://www.w3.org/2000/svg">
<path fill-rule="evenodd" clip-rule="evenodd" d="M5.71931 2.00627V8.10127C5.71931 9.05805 5.47174 9.97545 5.0321 10.6527L3.99319 12.2486C5.02921 12.194 6.06127 12.4716 7.02371 13.0636L7.45226 13.3274C8.58447 14.0238 9.82528 14.1905 11.0189 13.8065L8.96752 10.6527C8.52752 9.97588 8.28034 9.05817 8.28032 8.10127V2.00627C7.42694 1.95729 6.57268 1.95729 5.71931 2.00627ZM9.56082 2.11651L9.72302 2.1362C9.80756 2.14873 9.89289 2.13527 9.97402 2.0966C10.0552 2.05793 10.1305 1.99483 10.1956 1.91097C10.2607 1.82711 10.3143 1.72417 10.3533 1.60815C10.3923 1.49212 10.4158 1.36533 10.4226 1.23516C10.4294 1.10499 10.4193 0.974045 10.3929 0.849946C10.3664 0.725847 10.3242 0.611079 10.2686 0.512327C10.213 0.413574 10.1452 0.332811 10.0691 0.274742C9.99306 0.216673 9.91022 0.18246 9.82546 0.174093C7.94472 -0.0580311 6.0549 -0.0580311 4.17417 0.174093C4.00691 0.198877 3.85269 0.323757 3.74479 0.521791C3.63689 0.719824 3.58395 0.975137 3.59739 1.23265C3.61083 1.49015 3.68959 1.72921 3.81665 1.89825C3.94372 2.06729 4.10892 2.15275 4.27661 2.1362L4.4388 2.11651V8.10127C4.4388 8.53569 4.32612 8.95305 4.12636 9.26016L0.68266 14.5559C-0.594429 16.5193 -0.0147881 20.0025 1.88036 20.4291C3.55184 20.8058 5.26089 21 6.99981 21C8.73874 21 10.4478 20.8058 12.1193 20.4278C14.0144 20.0012 14.5949 16.518 13.317 14.5546L9.87326 9.26016C9.67337 8.95276 9.56099 8.53595 9.56082 8.10127V2.11651Z" fill="#FF003D"/>
</svg>
