<svg width="227" height="169" viewBox="0 0 227 169" fill="none" xmlns="http://www.w3.org/2000/svg">
<g filter="url(#filter0_i_879_182)">
<path d="M93.5039 20.8906L88.9336 47.9609L77.8398 48.1953L75.457 34.1719L73.0742 47.1797L61.9805 47.5703L57.3711 20.8906L67.0586 20.0312L69.0117 36.2422L71.6289 20.0312H79.2461L82.293 36.4375L83.8555 20.0312L93.5039 20.8906ZM117.82 46.3203L108.133 47.5703L106.961 43.1562H102.508L101.531 47.5703L91.5703 46.5938L99.3438 20.5781L110.203 20.0312L117.82 46.3203ZM106.258 37.1797L104.773 30.3828L103.328 37.1797H106.258ZM140.047 20.6172L132.898 47.0234L123.211 47.5703L114.422 22.0625L123.68 21.2031L127.43 36.0469L131.062 20.0312L140.047 20.6172ZM161.434 32.2188C161.434 33.3516 161.355 34.4844 161.199 35.6172C158.973 35.7604 156.759 35.9948 154.559 36.3203C152.358 36.6328 150.158 36.9453 147.957 37.2578C148.296 38.1953 148.823 38.944 149.539 39.5039C150.268 40.0638 151.134 40.3438 152.137 40.3438C152.658 40.3438 153.224 40.2461 153.836 40.0508C154.461 39.8555 155.079 39.6146 155.691 39.3281C156.303 39.0286 156.889 38.7096 157.449 38.3711C158.009 38.0326 158.491 37.7266 158.895 37.4531L157.957 46.3203C157.449 46.7109 156.896 47.043 156.297 47.3164C155.711 47.5898 155.099 47.8112 154.461 47.9805C153.823 48.1497 153.178 48.2734 152.527 48.3516C151.876 48.4297 151.238 48.4688 150.613 48.4688C149.324 48.4688 148.146 48.293 147.078 47.9414C146.01 47.5898 145.04 47.1016 144.168 46.4766C143.309 45.8385 142.553 45.0898 141.902 44.2305C141.251 43.3711 140.711 42.4336 140.281 41.418C139.852 40.4023 139.526 39.3281 139.305 38.1953C139.083 37.0625 138.973 35.9167 138.973 34.7578C138.973 33.5469 139.083 32.3359 139.305 31.125C139.526 29.9141 139.858 28.7487 140.301 27.6289C140.757 26.5091 141.323 25.474 142 24.5234C142.69 23.5599 143.491 22.7201 144.402 22.0039C145.314 21.2878 146.342 20.7279 147.488 20.3242C148.647 19.9206 149.923 19.7188 151.316 19.7188C152.475 19.7188 153.53 19.8815 154.48 20.207C155.444 20.5195 156.297 20.9622 157.039 21.5352C157.794 22.0951 158.445 22.7656 158.992 23.5469C159.552 24.3281 160.008 25.1875 160.359 26.125C160.724 27.0495 160.991 28.0326 161.16 29.0742C161.342 30.1029 161.434 31.151 161.434 32.2188ZM153.621 31.2031C153.621 30.8385 153.582 30.4674 153.504 30.0898C153.426 29.6992 153.296 29.3477 153.113 29.0352C152.944 28.7227 152.716 28.4688 152.43 28.2734C152.143 28.0651 151.785 27.9609 151.355 27.9609C150.835 27.9609 150.372 28.1042 149.969 28.3906C149.578 28.6641 149.24 29.0156 148.953 29.4453C148.667 29.862 148.432 30.3177 148.25 30.8125C148.068 31.3073 147.931 31.763 147.84 32.1797L153.621 31.6328V31.2031Z" fill="#FF003D"/>
</g>
<g filter="url(#filter1_d_879_182)">
<path d="M101.854 62.4336L101.443 66.7695L93.2207 67.4141C93.2598 65.1419 93.3021 62.8828 93.3477 60.6367C93.3997 58.3906 93.4616 56.1315 93.5332 53.8594H98.6113C98.4616 55.2852 98.3184 56.7109 98.1816 58.1367C98.0449 59.556 97.9473 60.9883 97.8887 62.4336C98.1947 62.4466 98.4974 62.4531 98.7969 62.4531C99.0964 62.4531 99.3991 62.4531 99.7051 62.4531C100.07 62.4531 100.428 62.4499 100.779 62.4434C101.131 62.4368 101.489 62.4336 101.854 62.4336ZM114.627 67.1602L109.783 67.7852L109.197 65.5781H106.971L106.482 67.7852L101.502 67.2969L105.389 54.2891L110.818 54.0156L114.627 67.1602ZM108.846 62.5898L108.104 59.1914L107.381 62.5898H108.846ZM126.199 64.5234C126.199 65.0638 126.098 65.5293 125.896 65.9199C125.701 66.3105 125.438 66.6426 125.105 66.916C124.773 67.1895 124.389 67.4141 123.953 67.5898C123.523 67.7591 123.074 67.8926 122.605 67.9902C122.137 68.0879 121.665 68.153 121.189 68.1855C120.721 68.2181 120.281 68.2344 119.871 68.2344C119.467 68.2344 119.048 68.2181 118.611 68.1855C118.182 68.1595 117.752 68.1107 117.322 68.0391C116.893 67.9674 116.469 67.873 116.053 67.7559C115.636 67.6322 115.242 67.4792 114.871 67.2969L114.852 54.7188C115.216 54.569 115.604 54.4355 116.014 54.3184C116.424 54.1947 116.84 54.0938 117.264 54.0156C117.693 53.931 118.12 53.8691 118.543 53.8301C118.966 53.7845 119.376 53.7617 119.773 53.7617C120.236 53.7617 120.701 53.791 121.17 53.8496C121.645 53.9082 122.101 54.0059 122.537 54.1426C122.973 54.2793 123.38 54.4583 123.758 54.6797C124.135 54.8945 124.464 55.1615 124.744 55.4805C125.031 55.7995 125.252 56.1706 125.408 56.5938C125.571 57.0169 125.652 57.5052 125.652 58.0586C125.652 58.4232 125.6 58.765 125.496 59.084C125.392 59.403 125.242 59.6895 125.047 59.9434C124.852 60.1973 124.614 60.4154 124.334 60.5977C124.054 60.7734 123.738 60.9036 123.387 60.9883C123.81 61.099 124.194 61.2617 124.539 61.4766C124.891 61.6914 125.187 61.9518 125.428 62.2578C125.675 62.5638 125.864 62.9089 125.994 63.293C126.131 63.6771 126.199 64.0872 126.199 64.5234ZM121.238 58.957C121.238 58.7682 121.199 58.6087 121.121 58.4785C121.043 58.3418 120.945 58.2311 120.828 58.1465C120.717 58.0618 120.594 58 120.457 57.9609C120.327 57.9219 120.21 57.9023 120.105 57.9023C119.975 57.9023 119.848 57.9219 119.725 57.9609C119.601 58 119.48 58.0456 119.363 58.0977L119.305 60.2656C119.454 60.2656 119.64 60.2526 119.861 60.2266C120.083 60.2005 120.294 60.1452 120.496 60.0605C120.704 59.9694 120.88 59.8392 121.023 59.6699C121.167 59.4941 121.238 59.2565 121.238 58.957ZM119.852 62.1406C119.663 62.1406 119.48 62.1602 119.305 62.1992L119.266 64.4258C119.363 64.4453 119.458 64.4648 119.549 64.4844C119.646 64.4974 119.741 64.5039 119.832 64.5039C119.969 64.5039 120.118 64.4909 120.281 64.4648C120.444 64.4323 120.597 64.3737 120.74 64.2891C120.883 64.1979 121.001 64.0775 121.092 63.9277C121.189 63.778 121.238 63.5794 121.238 63.332C121.238 63.0846 121.189 62.8828 121.092 62.7266C121.001 62.5703 120.887 62.4499 120.75 62.3652C120.613 62.2741 120.464 62.2155 120.301 62.1895C120.138 62.1569 119.988 62.1406 119.852 62.1406Z" fill="#FF003D"/>
</g>
<path fill-rule="evenodd" clip-rule="evenodd" d="M21.6517 6.7831V27.39C21.6517 30.6248 20.7145 33.7265 19.0501 36.0162L15.1171 41.4119C19.0391 41.2275 22.9462 42.1659 26.5898 44.1675L28.2121 45.0594C32.4984 47.4139 37.1957 47.9774 41.7144 46.679L33.9485 36.0162C32.2827 33.728 31.347 30.6252 31.3469 27.39V6.7831C28.1163 6.61749 24.8823 6.61749 21.6517 6.7831ZM36.1945 7.15584L36.8086 7.2224C37.1286 7.26475 37.4517 7.21924 37.7588 7.0885C38.0659 6.95777 38.3511 6.74442 38.5976 6.4609C38.8441 6.17738 39.047 5.82935 39.1946 5.43707C39.3422 5.0448 39.4314 4.61613 39.4571 4.17603C39.4829 3.73593 39.4446 3.2932 39.3444 2.87363C39.2443 2.45406 39.0844 2.06603 38.874 1.73215C38.6636 1.39827 38.4069 1.12522 38.1189 0.928891C37.8309 0.732563 37.5173 0.616887 37.1964 0.588601C30.0764 -0.1962 22.9221 -0.1962 15.8022 0.588601C15.169 0.672393 14.5852 1.09461 14.1767 1.76415C13.7682 2.43369 13.5678 3.29689 13.6187 4.16751C13.6696 5.03814 13.9677 5.84639 14.4488 6.4179C14.9298 6.98941 15.5552 7.27835 16.19 7.2224L16.804 7.15584V27.39C16.804 28.8588 16.3775 30.2698 15.6212 31.3082L2.58435 49.2128C-2.25034 55.851 -0.0559836 67.6276 7.1185 69.0698C13.4463 70.3433 19.9162 71 26.4993 71C33.0824 71 39.5523 70.3433 45.8801 69.0653C53.0546 67.6232 55.2521 55.8465 50.4142 49.2083L37.3773 31.3082C36.6206 30.2688 36.1952 28.8596 36.1945 27.39V7.15584Z" fill="#FF003D"/>
<defs>
<filter id="filter0_i_879_182" x="57.3711" y="19.7188" width="104.062" height="32.75" filterUnits="userSpaceOnUse" color-interpolation-filters="sRGB">
<feFlood flood-opacity="0" result="BackgroundImageFix"/>
<feBlend mode="normal" in="SourceGraphic" in2="BackgroundImageFix" result="shape"/>
<feColorMatrix in="SourceAlpha" type="matrix" values="0 0 0 0 0 0 0 0 0 0 0 0 0 0 0 0 0 0 127 0" result="hardAlpha"/>
<feOffset dy="4"/>
<feGaussianBlur stdDeviation="2"/>
<feComposite in2="hardAlpha" operator="arithmetic" k2="-1" k3="1"/>
<feColorMatrix type="matrix" values="0 0 0 0 0 0 0 0 0 0 0 0 0 0 0 0 0 0 0.25 0"/>
<feBlend mode="normal" in2="shape" result="effect1_innerShadow_879_182"/>
</filter>
<filter id="filter1_d_879_182" x="93.2207" y="53.7617" width="132.979" height="114.473" filterUnits="userSpaceOnUse" color-interpolation-filters="sRGB">
<feFlood flood-opacity="0" result="BackgroundImageFix"/>
<feColorMatrix in="SourceAlpha" type="matrix" values="0 0 0 0 0 0 0 0 0 0 0 0 0 0 0 0 0 0 127 0" result="hardAlpha"/>
<feOffset dx="50" dy="50"/>
<feGaussianBlur stdDeviation="25"/>
<feComposite in2="hardAlpha" operator="out"/>
<feColorMatrix type="matrix" values="0 0 0 0 0 0 0 0 0 0 0 0 0 0 0 0 0 0 0.5 0"/>
<feBlend mode="normal" in2="BackgroundImageFix" result="effect1_dropShadow_879_182"/>
<feBlend mode="normal" in="SourceGraphic" in2="effect1_dropShadow_879_182" result="shape"/>
</filter>
</defs>
</svg>
