<svg width="221" height="167" viewBox="0 0 221 167" fill="none" xmlns="http://www.w3.org/2000/svg">
<g filter="url(#filter0_i_896_27)">
<path d="M88.0391 20.3273L83.4688 47.3976L72.3751 47.632L69.9923 33.6085L67.6095 46.6163L56.5157 47.007L51.9063 20.3273L61.5938 19.4679L63.547 35.6788L66.1641 19.4679H73.7813L76.8282 35.8741L78.3907 19.4679L88.0391 20.3273ZM112.356 45.757L102.668 47.007L101.496 42.5929H97.043L96.0665 47.007L86.1055 46.0304L93.879 20.0148L104.738 19.4679L112.356 45.757ZM100.793 36.6163L99.3087 29.8195L97.8634 36.6163H100.793ZM134.582 20.0538L127.434 46.4601L117.746 47.007L108.957 21.4991L118.215 20.6398L121.965 35.4835L125.598 19.4679L134.582 20.0538ZM155.969 31.6554C155.969 32.7882 155.891 33.921 155.734 35.0538C153.508 35.1971 151.294 35.4314 149.094 35.757C146.893 36.0695 144.693 36.382 142.492 36.6945C142.831 37.632 143.358 38.3807 144.074 38.9406C144.803 39.5004 145.669 39.7804 146.672 39.7804C147.193 39.7804 147.759 39.6827 148.371 39.4874C148.996 39.2921 149.615 39.0512 150.227 38.7648C150.839 38.4653 151.425 38.1463 151.984 37.8077C152.544 37.4692 153.026 37.1632 153.43 36.8898L152.492 45.757C151.984 46.1476 151.431 46.4796 150.832 46.7531C150.246 47.0265 149.634 47.2478 148.996 47.4171C148.358 47.5864 147.714 47.7101 147.063 47.7882C146.412 47.8663 145.774 47.9054 145.149 47.9054C143.859 47.9054 142.681 47.7296 141.613 47.3781C140.546 47.0265 139.576 46.5382 138.703 45.9132C137.844 45.2752 137.089 44.5265 136.438 43.6671C135.787 42.8077 135.246 41.8702 134.816 40.8546C134.387 39.839 134.061 38.7648 133.84 37.632C133.619 36.4991 133.508 35.3533 133.508 34.1945C133.508 32.9835 133.619 31.7726 133.84 30.5616C134.061 29.3507 134.393 28.1853 134.836 27.0656C135.292 25.9458 135.858 24.9106 136.535 23.9601C137.225 22.9965 138.026 22.1567 138.938 21.4406C139.849 20.7244 140.878 20.1645 142.024 19.7609C143.182 19.3572 144.458 19.1554 145.852 19.1554C147.01 19.1554 148.065 19.3182 149.016 19.6437C149.979 19.9562 150.832 20.3989 151.574 20.9718C152.33 21.5317 152.981 22.2023 153.527 22.9835C154.087 23.7648 154.543 24.6241 154.895 25.5616C155.259 26.4861 155.526 27.4692 155.695 28.5109C155.878 29.5395 155.969 30.5877 155.969 31.6554ZM148.156 30.6398C148.156 30.2752 148.117 29.9041 148.039 29.5265C147.961 29.1359 147.831 28.7843 147.649 28.4718C147.479 28.1593 147.251 27.9054 146.965 27.7101C146.678 27.5017 146.32 27.3976 145.891 27.3976C145.37 27.3976 144.908 27.5408 144.504 27.8273C144.113 28.1007 143.775 28.4523 143.488 28.882C143.202 29.2986 142.968 29.7544 142.785 30.2491C142.603 30.7439 142.466 31.1997 142.375 31.6163L148.156 31.0695V30.6398Z" fill="black"/>
</g>
<g filter="url(#filter1_d_896_27)">
<path d="M96.3887 60.9125L95.9786 65.2484L87.7559 65.8929C87.795 63.6208 87.8373 61.3617 87.8829 59.1156C87.935 56.8695 87.9968 54.6104 88.0684 52.3383H93.1466C92.9968 53.764 92.8536 55.1898 92.7169 56.6156C92.5802 58.0349 92.4825 59.4672 92.4239 60.9125C92.7299 60.9255 93.0326 60.932 93.3321 60.932C93.6316 60.932 93.9343 60.932 94.2403 60.932C94.6049 60.932 94.963 60.9288 95.3145 60.9222C95.6661 60.9157 96.0242 60.9125 96.3887 60.9125ZM109.162 65.639L104.318 66.264L103.732 64.057H101.506L101.018 66.264L96.0372 65.7758L99.9239 52.7679L105.354 52.4945L109.162 65.639ZM103.381 61.0687L102.639 57.6703L101.916 61.0687H103.381ZM120.734 63.0023C120.734 63.5427 120.634 64.0082 120.432 64.3988C120.236 64.7894 119.973 65.1215 119.641 65.3949C119.309 65.6683 118.925 65.8929 118.488 66.0687C118.059 66.238 117.609 66.3715 117.141 66.4691C116.672 66.5668 116.2 66.6319 115.725 66.6644C115.256 66.697 114.816 66.7133 114.406 66.7133C114.003 66.7133 113.583 66.697 113.147 66.6644C112.717 66.6384 112.287 66.5896 111.857 66.5179C111.428 66.4463 111.005 66.3519 110.588 66.2347C110.171 66.111 109.777 65.958 109.406 65.7758L109.387 53.1976C109.751 53.0479 110.139 52.9144 110.549 52.7972C110.959 52.6735 111.376 52.5726 111.799 52.4945C112.229 52.4099 112.655 52.348 113.078 52.309C113.501 52.2634 113.912 52.2406 114.309 52.2406C114.771 52.2406 115.236 52.2699 115.705 52.3285C116.18 52.3871 116.636 52.4847 117.072 52.6215C117.509 52.7582 117.915 52.9372 118.293 53.1586C118.671 53.3734 118.999 53.6403 119.279 53.9594C119.566 54.2784 119.787 54.6495 119.943 55.0726C120.106 55.4958 120.188 55.9841 120.188 56.5375C120.188 56.9021 120.135 57.2439 120.031 57.5629C119.927 57.8819 119.777 58.1683 119.582 58.4222C119.387 58.6761 119.149 58.8942 118.869 59.0765C118.589 59.2523 118.274 59.3825 117.922 59.4672C118.345 59.5778 118.729 59.7406 119.074 59.9554C119.426 60.1703 119.722 60.4307 119.963 60.7367C120.21 61.0427 120.399 61.3877 120.529 61.7719C120.666 62.156 120.734 62.5661 120.734 63.0023ZM115.774 57.4359C115.774 57.2471 115.734 57.0876 115.656 56.9574C115.578 56.8207 115.481 56.71 115.363 56.6254C115.253 56.5407 115.129 56.4789 114.992 56.4398C114.862 56.4008 114.745 56.3812 114.641 56.3812C114.51 56.3812 114.384 56.4008 114.26 56.4398C114.136 56.4789 114.016 56.5245 113.899 56.5765L113.84 58.7445C113.99 58.7445 114.175 58.7315 114.397 58.7054C114.618 58.6794 114.83 58.6241 115.031 58.5394C115.24 58.4483 115.415 58.3181 115.559 58.1488C115.702 57.973 115.774 57.7354 115.774 57.4359ZM114.387 60.6195C114.198 60.6195 114.016 60.639 113.84 60.6781L113.801 62.9047C113.899 62.9242 113.993 62.9437 114.084 62.9633C114.182 62.9763 114.276 62.9828 114.367 62.9828C114.504 62.9828 114.654 62.9698 114.816 62.9437C114.979 62.9112 115.132 62.8526 115.275 62.7679C115.419 62.6768 115.536 62.5564 115.627 62.4066C115.725 62.2569 115.774 62.0583 115.774 61.8109C115.774 61.5635 115.725 61.3617 115.627 61.2054C115.536 61.0492 115.422 60.9288 115.285 60.8441C115.149 60.753 114.999 60.6944 114.836 60.6683C114.673 60.6358 114.524 60.6195 114.387 60.6195Z" fill="black"/>
</g>
<path fill-rule="evenodd" clip-rule="evenodd" d="M20.5711 6.59203V26.6185C20.5711 29.7621 19.6807 32.7765 18.0994 35.0016L14.3626 40.2454C18.0889 40.0661 21.8011 40.9781 25.2628 42.9234L26.8041 43.7901C30.8765 46.0783 35.3394 46.6259 39.6325 45.3641L32.2542 35.0016C30.6716 32.7779 29.7825 29.7625 29.7825 26.6185V6.59203C26.7131 6.43108 23.6405 6.43108 20.5711 6.59203ZM34.3882 6.95426L34.9715 7.01895C35.2757 7.06011 35.5826 7.01588 35.8744 6.88882C36.1662 6.76177 36.4371 6.55444 36.6713 6.2789C36.9055 6.00337 37.0983 5.66514 37.2385 5.28392C37.3787 4.90269 37.4635 4.48609 37.4879 4.05839C37.5124 3.63069 37.476 3.20043 37.3809 2.79268C37.2858 2.38493 37.1338 2.00783 36.9339 1.68336C36.734 1.35889 36.4901 1.09352 36.2165 0.902725C35.9428 0.711927 35.6449 0.59951 35.34 0.572021C28.5754 -0.190674 21.7782 -0.190674 15.0136 0.572021C14.412 0.653452 13.8573 1.06377 13.4692 1.71445C13.0811 2.36514 12.8907 3.20402 12.939 4.05012C12.9874 4.89622 13.2706 5.6817 13.7277 6.23711C14.1847 6.79252 14.7789 7.07333 15.382 7.01895L15.9654 6.95426V26.6185C15.9654 28.0458 15.5601 29.4172 14.8416 30.4262L2.45538 47.8265C-2.13803 54.2777 -0.0531896 65.7226 6.76323 67.1241C12.7752 68.3618 18.9223 69 25.1768 69C31.4313 69 37.5784 68.3618 43.5903 67.1198C50.4068 65.7183 52.4947 54.2734 47.8982 47.8222L35.512 30.4262C34.793 29.4162 34.3888 28.0467 34.3882 26.6185V6.95426Z" fill="black"/>
<defs>
<filter id="filter0_i_896_27" x="51.9062" y="19.1554" width="104.062" height="32.75" filterUnits="userSpaceOnUse" color-interpolation-filters="sRGB">
<feFlood flood-opacity="0" result="BackgroundImageFix"/>
<feBlend mode="normal" in="SourceGraphic" in2="BackgroundImageFix" result="shape"/>
<feColorMatrix in="SourceAlpha" type="matrix" values="0 0 0 0 0 0 0 0 0 0 0 0 0 0 0 0 0 0 127 0" result="hardAlpha"/>
<feOffset dy="4"/>
<feGaussianBlur stdDeviation="2"/>
<feComposite in2="hardAlpha" operator="arithmetic" k2="-1" k3="1"/>
<feColorMatrix type="matrix" values="0 0 0 0 0 0 0 0 0 0 0 0 0 0 0 0 0 0 0.25 0"/>
<feBlend mode="normal" in2="shape" result="effect1_innerShadow_896_27"/>
</filter>
<filter id="filter1_d_896_27" x="87.7559" y="52.2406" width="132.979" height="114.473" filterUnits="userSpaceOnUse" color-interpolation-filters="sRGB">
<feFlood flood-opacity="0" result="BackgroundImageFix"/>
<feColorMatrix in="SourceAlpha" type="matrix" values="0 0 0 0 0 0 0 0 0 0 0 0 0 0 0 0 0 0 127 0" result="hardAlpha"/>
<feOffset dx="50" dy="50"/>
<feGaussianBlur stdDeviation="25"/>
<feComposite in2="hardAlpha" operator="out"/>
<feColorMatrix type="matrix" values="0 0 0 0 0 0 0 0 0 0 0 0 0 0 0 0 0 0 0.5 0"/>
<feBlend mode="normal" in2="BackgroundImageFix" result="effect1_dropShadow_896_27"/>
<feBlend mode="normal" in="SourceGraphic" in2="effect1_dropShadow_896_27" result="shape"/>
</filter>
</defs>
</svg>
