<svg width="57" height="57" viewBox="0 0 57 57" fill="none" xmlns="http://www.w3.org/2000/svg">
<path d="M28.5 7.125C40.2863 7.125 49.875 16.7137 49.875 28.5C49.875 40.2863 40.2863 49.875 28.5 49.875C16.7137 49.875 7.125 40.2863 7.125 28.5C7.125 16.7137 16.7137 7.125 28.5 7.125ZM18.3346 38.6654C18.6686 38.9992 19.1215 39.1867 19.5938 39.1867C20.066 39.1867 20.5189 38.9992 20.8529 38.6654L25.6222 33.8972C27.637 35.2837 30.0973 35.8671 32.5202 35.533C34.9431 35.199 37.1537 33.9715 38.7181 32.0915C40.2826 30.2115 41.0881 27.8147 40.9764 25.3715C40.8647 22.9282 39.844 20.6149 38.1146 18.8854C36.3851 17.156 34.0718 16.1353 31.6285 16.0236C29.1853 15.9119 26.7885 16.7174 24.9085 18.2819C23.0285 19.8463 21.801 22.0569 21.467 24.4798C21.1329 26.9027 21.7163 29.363 23.1028 31.3778L18.3346 36.1471C18.0008 36.4811 17.8133 36.934 17.8133 37.4063C17.8133 37.8785 18.0008 38.3314 18.3346 38.6654Z" fill="white"/>
<path d="M31.1719 32.0625C27.7287 32.0625 24.9375 29.2713 24.9375 25.8281C24.9375 22.385 27.7287 19.5938 31.1719 19.5938C34.615 19.5938 37.4062 22.385 37.4062 25.8281C37.4062 29.2713 34.615 32.0625 31.1719 32.0625Z" fill="white"/>
</svg>
