<svg width="162" height="28" viewBox="0 0 162 28" fill="none" xmlns="http://www.w3.org/2000/svg">
<path d="M29.1533 14.0852C29.1533 6.30426 22.6291 0 14.5767 0C6.52423 0 0 6.30426 0 14.0852C0 21.1153 5.33047 26.9425 12.2991 28V18.1568H8.59611V14.0852H12.2991V10.9819C12.2991 7.45209 14.4738 5.50231 17.8047 5.50231C19.3999 5.50231 21.068 5.7772 21.068 5.7772V9.2417H19.2294C17.4191 9.2417 16.8543 10.3276 16.8543 11.4414V14.0852H20.8969L20.2504 18.1568H16.8543V28C23.8228 26.9425 29.1533 21.1153 29.1533 14.0852Z" fill="black"/>
<path d="M149.856 8.87578C146.624 8.87578 144.017 11.3957 144.017 14.5181C144.017 17.6405 146.624 20.1604 149.856 20.1604C153.087 20.1604 155.695 17.6405 155.695 14.5181C155.695 11.3957 153.087 8.87578 149.856 8.87578ZM149.856 18.1852C147.766 18.1852 146.061 16.5373 146.061 14.5181C146.061 12.4989 147.766 10.851 149.856 10.851C151.945 10.851 153.651 12.4989 153.651 14.5181C153.651 16.5373 151.945 18.1852 149.856 18.1852ZM155.934 7.32971C155.18 7.32971 154.57 7.91842 154.57 8.64744C154.57 9.37646 155.18 9.96518 155.934 9.96518C156.689 9.96518 157.298 9.37921 157.298 8.64744C157.298 8.47433 157.263 8.30288 157.194 8.14291C157.126 7.98294 157.026 7.83758 156.899 7.71518C156.772 7.59277 156.622 7.49572 156.456 7.42957C156.291 7.36342 156.113 7.32949 155.934 7.32971V7.32971ZM161.238 14.5181C161.238 12.9995 161.252 11.4947 161.164 9.97893C161.076 8.21828 160.66 6.65571 159.328 5.36823C157.992 4.07801 156.378 3.67911 154.556 3.59383C152.985 3.50855 151.427 3.5223 149.859 3.5223C148.287 3.5223 146.73 3.50855 145.161 3.59383C143.339 3.67911 141.722 4.08076 140.389 5.36823C139.054 6.65846 138.641 8.21828 138.553 9.97893C138.465 11.4975 138.479 13.0023 138.479 14.5181C138.479 16.0339 138.465 17.5415 138.553 19.0573C138.641 20.8179 139.057 22.3805 140.389 23.668C141.725 24.9582 143.339 25.3571 145.161 25.4424C146.733 25.5277 148.29 25.5139 149.859 25.5139C151.43 25.5139 152.987 25.5277 154.556 25.4424C156.378 25.3571 157.995 24.9555 159.328 23.668C160.663 22.3778 161.076 20.8179 161.164 19.0573C161.255 17.5415 161.238 16.0367 161.238 14.5181V14.5181ZM158.733 21.005C158.525 21.5057 158.274 21.8798 157.873 22.265C157.471 22.6529 157.087 22.8949 156.569 23.0958C155.071 23.6707 151.516 23.5414 149.856 23.5414C148.196 23.5414 144.637 23.6707 143.14 23.0985C142.622 22.8977 142.234 22.6556 141.836 22.2677C141.434 21.8798 141.184 21.5084 140.976 21.0077C140.384 19.558 140.518 16.1219 140.518 14.5181C140.518 12.9143 140.384 9.4755 140.976 8.02846C141.184 7.52778 141.434 7.15364 141.836 6.7685C142.237 6.38336 142.622 6.13852 143.14 5.93769C144.637 5.36548 148.196 5.49478 149.856 5.49478C151.516 5.49478 155.074 5.36548 156.572 5.93769C157.09 6.13852 157.477 6.38061 157.876 6.7685C158.277 7.15639 158.528 7.52778 158.736 8.02846C159.328 9.4755 159.194 12.9143 159.194 14.5181C159.194 16.1219 159.328 19.558 158.733 21.005Z" fill="black"/>
<path d="M96.8215 6.09147C95.8072 6.52576 94.7176 6.8192 93.5721 6.95184C94.754 6.26846 95.6382 5.19291 96.0598 3.92587C94.9494 4.56321 93.7341 5.01183 92.4667 5.25222C91.6144 4.37291 90.4855 3.79009 89.2554 3.59425C88.0252 3.3984 86.7625 3.60049 85.6633 4.16913C84.5642 4.73778 83.69 5.64117 83.1767 6.73904C82.6633 7.83691 82.5394 9.06784 82.8242 10.2407C80.5742 10.1316 78.373 9.56646 76.3636 8.58209C74.3542 7.59772 72.5815 6.21608 71.1605 4.52684C70.6746 5.33674 70.3952 6.27575 70.3952 7.2758C70.3946 8.17607 70.6241 9.06255 71.0631 9.85659C71.5022 10.6506 72.1373 11.3277 72.9121 11.8277C72.0135 11.8 71.1348 11.5654 70.349 11.1434V11.2138C70.3489 12.4765 70.8009 13.7003 71.6284 14.6776C72.4558 15.6549 73.6076 16.3255 74.8884 16.5755C74.0549 16.7935 73.181 16.8256 72.3327 16.6694C72.694 17.7559 73.398 18.706 74.3459 19.3866C75.2938 20.0673 76.4383 20.4445 77.6191 20.4654C75.6146 21.9859 73.1391 22.8107 70.5908 22.8071C70.1393 22.8072 69.6883 22.7817 69.24 22.7308C71.8267 24.3379 74.8378 25.1908 77.9131 25.1875C88.3233 25.1875 94.0142 16.8561 94.0142 9.63037C94.0142 9.39562 94.0082 9.15852 93.9972 8.92376C95.1042 8.15022 96.0597 7.19234 96.819 6.09499L96.8215 6.09147Z" fill="black"/>
</svg>
