<svg width="50" height="50" viewBox="0 0 50 50" fill="none" xmlns="http://www.w3.org/2000/svg">
<path d="M7.56462 4.42083C5.70316 3.49062 3.64274 5.26667 4.28753 7.24479L8.46878 20.0625C8.58704 20.4246 8.80232 20.7474 9.09122 20.9957C9.38011 21.244 9.73155 21.4083 10.1073 21.4708L26.6282 24.224C27.4979 24.3698 27.4979 25.6198 26.6282 25.7656L10.1084 28.5187C9.73259 28.5813 9.38115 28.7456 9.09226 28.9939C8.80337 29.2422 8.58808 29.565 8.46982 29.9271L4.28753 42.7521C3.6417 44.7312 5.70316 46.5073 7.56462 45.5771L44.5375 27.0958C46.2657 26.2312 46.2657 23.7656 44.5375 22.9021L7.56462 4.42083Z" fill="#D7093B"/>
</svg>
