<svg width="53" height="53" viewBox="0 0 53 53" fill="none" xmlns="http://www.w3.org/2000/svg">
<path d="M42.135 23.585C33.655 18.55 19.4775 18.02 11.395 20.5375C10.07 20.935 8.745 20.14 8.3475 18.9475C7.95 17.6225 8.745 16.2975 9.9375 15.9C19.345 13.1175 34.8475 13.6475 44.6525 19.4775C45.845 20.14 46.2425 21.73 45.58 22.9225C44.9175 23.85 43.3275 24.2475 42.135 23.585ZM41.87 31.005C41.2075 31.9325 40.015 32.33 39.0875 31.6675C31.9325 27.295 21.0675 25.97 12.72 28.62C11.66 28.885 10.4675 28.355 10.2025 27.295C9.9375 26.235 10.4675 25.0425 11.5275 24.7775C21.2 21.8625 33.125 23.32 41.34 28.355C42.135 28.7525 42.5325 30.0775 41.87 31.005ZM38.69 38.2925C38.16 39.0875 37.2325 39.3525 36.4375 38.8225C30.21 34.98 22.3925 34.185 13.1175 36.305C12.19 36.57 11.395 35.9075 11.13 35.1125C10.865 34.185 11.5275 33.39 12.3225 33.125C22.3925 30.8725 31.1375 31.8 38.0275 36.04C38.955 36.4375 39.0875 37.4975 38.69 38.2925ZM26.5 0C23.02 0 19.574 0.685443 16.3589 2.01719C13.1438 3.34894 10.2224 5.30092 7.76167 7.76167C2.79196 12.7314 0 19.4718 0 26.5C0 33.5282 2.79196 40.2686 7.76167 45.2383C10.2224 47.6991 13.1438 49.6511 16.3589 50.9828C19.574 52.3146 23.02 53 26.5 53C33.5282 53 40.2686 50.208 45.2383 45.2383C50.208 40.2686 53 33.5282 53 26.5C53 23.02 52.3146 19.574 50.9828 16.3589C49.6511 13.1438 47.6991 10.2224 45.2383 7.76167C42.7776 5.30092 39.8562 3.34894 36.6411 2.01719C33.426 0.685443 29.98 0 26.5 0Z" fill="#FF003D"/>
</svg>
